# xmcd
#
# Track frame offsets:
#	150
#	10175
#	22392
#	35930
#	51715
#	62130
#	74143
#	88183
#	103969
#	119036
#	132916
#	145053
#	159909
#	169408
#	180307
#	190923
#	204613
#	216287
#	225484
#	239923
#
# Disc length: 3353
#
# Revision: 1
# Processed by: cddbd v1.5.1PL0 Copyright (c) Steve Scherf et al.
# Submitted via: dBpowerAMP V4.0
# Normalized: r0:DSETVAR1,TDELIM( - )
#
DISCID=450d1714
DTITLE=Various Artist - Country Greats CD12
DYEAR=1900
DGENRE=
TTITLE0=Don Gibson - Lonesome Number One
TTITLE1=Jeanne Pruett - SatinSheets
TTITLE2=Jimmy Dean - Big Bad John
TTITLE3=Cash Backman - My Girl Bill
TTITLE4=Little Jimmy Dickens - May The Bird Of Paradise Fly Up Your Nose
TTITLE5=Hank Thompson - Wild Side Of Life
TTITLE6=Billy Jo Spears - Mr Walker, It's All Over
TTITLE7=Don Fardon - Brown Eyed And Blue
TTITLE8=Barbara Fairchild - Baby Doll
TTITLE9=Ernest Tubb - Tomorrow Never Comes
TTITLE10=Faron Young - Sweet Dreams
TTITLE11=Cash Backman - Jenny
TTITLE12=Willie Nelson - Building Heartaches
TTITLE13=Carl Perkins - Dixie Fried
TTITLE14=Waylon Jennings - Sally Was A Good Old Girl
TTITLE15=Lee Conway - Thing In The Swamp
TTITLE16=Bill Philips - Put It Off Until Tomorrow
TTITLE17=Jean Shepherd - Second Fiddle (to an old guitar)
TTITLE18=Kenny Rogers - Sunshine
TTITLE19=Kitty Wells - Password
EXTD=
EXTT0=
EXTT1=
EXTT2=
EXTT3=
EXTT4=
EXTT5=
EXTT6=
EXTT7=
EXTT8=
EXTT9=
EXTT10=
EXTT11=
EXTT12=
EXTT13=
EXTT14=
EXTT15=
EXTT16=
EXTT17=
EXTT18=
EXTT19=
PLAYORDER=
